<mxfile host="app.diagrams.net" modified="2023-07-24T05:57:28.791Z" agent="Mozilla/5.0 (Windows NT 10.0; Win64; x64) AppleWebKit/537.36 (KHTML, like Gecko) Chrome/114.0.0.0 Safari/537.36 Edg/114.0.1823.82" etag="pT9OkpIFIEdgLWTeK0xU" version="21.6.5" type="github">
  <diagram name="Page-1" id="YQkKPv3IHBz7KrScqebn">
    <mxGraphModel dx="616" dy="430" grid="1" gridSize="10" guides="1" tooltips="1" connect="1" arrows="1" fold="1" page="1" pageScale="1" pageWidth="5000" pageHeight="5000" math="0" shadow="0">
      <root>
        <mxCell id="0" />
        <mxCell id="1" parent="0" />
        <mxCell id="zpY-GAfpiMJKnw2xZxAC-1" value="Vulkan" style="rounded=0;whiteSpace=wrap;html=1;" vertex="1" parent="1">
          <mxGeometry x="1610" y="1070" width="80" height="40" as="geometry" />
        </mxCell>
        <mxCell id="zpY-GAfpiMJKnw2xZxAC-2" value="ValidationLayer" style="rounded=0;whiteSpace=wrap;html=1;" vertex="1" parent="1">
          <mxGeometry x="1735" y="985" width="110" height="40" as="geometry" />
        </mxCell>
        <mxCell id="zpY-GAfpiMJKnw2xZxAC-4" value="GLFW" style="rounded=0;whiteSpace=wrap;html=1;" vertex="1" parent="1">
          <mxGeometry x="1490" y="1000" width="80" height="40" as="geometry" />
        </mxCell>
        <mxCell id="zpY-GAfpiMJKnw2xZxAC-5" value="swap chain" style="rounded=0;whiteSpace=wrap;html=1;" vertex="1" parent="1">
          <mxGeometry x="1480" y="1090" width="80" height="40" as="geometry" />
        </mxCell>
        <mxCell id="zpY-GAfpiMJKnw2xZxAC-6" value="WSI" style="rounded=0;whiteSpace=wrap;html=1;" vertex="1" parent="1">
          <mxGeometry x="1480" y="1160" width="80" height="40" as="geometry" />
        </mxCell>
        <mxCell id="zpY-GAfpiMJKnw2xZxAC-7" value="instance" style="rounded=0;whiteSpace=wrap;html=1;" vertex="1" parent="1">
          <mxGeometry x="1645" y="1160" width="80" height="40" as="geometry" />
        </mxCell>
        <mxCell id="zpY-GAfpiMJKnw2xZxAC-8" value="physical devices" style="rounded=0;whiteSpace=wrap;html=1;" vertex="1" parent="1">
          <mxGeometry x="1750" y="1100" width="80" height="40" as="geometry" />
        </mxCell>
        <mxCell id="zpY-GAfpiMJKnw2xZxAC-9" value="queue families" style="rounded=0;whiteSpace=wrap;html=1;" vertex="1" parent="1">
          <mxGeometry x="1610" y="985" width="80" height="40" as="geometry" />
        </mxCell>
        <mxCell id="zpY-GAfpiMJKnw2xZxAC-10" value="logical device" style="rounded=0;whiteSpace=wrap;html=1;" vertex="1" parent="1">
          <mxGeometry x="1780" y="1180" width="80" height="40" as="geometry" />
        </mxCell>
        <mxCell id="zpY-GAfpiMJKnw2xZxAC-11" value="Extension" style="rounded=0;whiteSpace=wrap;html=1;" vertex="1" parent="1">
          <mxGeometry x="1490" y="920" width="80" height="40" as="geometry" />
        </mxCell>
        <mxCell id="zpY-GAfpiMJKnw2xZxAC-12" value="basic surface capabilities" style="rounded=0;whiteSpace=wrap;html=1;" vertex="1" parent="1">
          <mxGeometry x="1370" y="1040" width="80" height="40" as="geometry" />
        </mxCell>
        <mxCell id="zpY-GAfpiMJKnw2xZxAC-13" value="surface formats" style="rounded=0;whiteSpace=wrap;html=1;" vertex="1" parent="1">
          <mxGeometry x="1370" y="1090" width="80" height="40" as="geometry" />
        </mxCell>
        <mxCell id="zpY-GAfpiMJKnw2xZxAC-14" value="available presentation modes" style="rounded=0;whiteSpace=wrap;html=1;" vertex="1" parent="1">
          <mxGeometry x="1370" y="1140" width="80" height="40" as="geometry" />
        </mxCell>
        <mxCell id="zpY-GAfpiMJKnw2xZxAC-15" value="surface format" style="rounded=0;whiteSpace=wrap;html=1;" vertex="1" parent="1">
          <mxGeometry x="1260" y="1040" width="80" height="40" as="geometry" />
        </mxCell>
        <mxCell id="zpY-GAfpiMJKnw2xZxAC-18" value="presentation mode" style="rounded=0;whiteSpace=wrap;html=1;" vertex="1" parent="1">
          <mxGeometry x="1260" y="1090" width="80" height="40" as="geometry" />
        </mxCell>
        <mxCell id="zpY-GAfpiMJKnw2xZxAC-19" value="swap extent" style="rounded=0;whiteSpace=wrap;html=1;" vertex="1" parent="1">
          <mxGeometry x="1260" y="1140" width="80" height="40" as="geometry" />
        </mxCell>
        <mxCell id="zpY-GAfpiMJKnw2xZxAC-20" value="vertical blank" style="rounded=0;whiteSpace=wrap;html=1;" vertex="1" parent="1">
          <mxGeometry x="1140" y="1090" width="80" height="40" as="geometry" />
        </mxCell>
        <mxCell id="zpY-GAfpiMJKnw2xZxAC-21" value="triple buffering" style="rounded=0;whiteSpace=wrap;html=1;" vertex="1" parent="1">
          <mxGeometry x="1140" y="1140" width="80" height="40" as="geometry" />
        </mxCell>
        <mxCell id="zpY-GAfpiMJKnw2xZxAC-22" value="ImageVirew" style="rounded=0;whiteSpace=wrap;html=1;" vertex="1" parent="1">
          <mxGeometry x="1220" y="920" width="80" height="40" as="geometry" />
        </mxCell>
        <mxCell id="zpY-GAfpiMJKnw2xZxAC-23" value="queueCreateInfo" style="rounded=0;whiteSpace=wrap;html=1;" vertex="1" parent="1">
          <mxGeometry x="1680" y="1250" width="80" height="40" as="geometry" />
        </mxCell>
        <mxCell id="zpY-GAfpiMJKnw2xZxAC-24" value="ExtensionCount" style="rounded=0;whiteSpace=wrap;html=1;" vertex="1" parent="1">
          <mxGeometry x="1845" y="1250" width="80" height="40" as="geometry" />
        </mxCell>
        <mxCell id="zpY-GAfpiMJKnw2xZxAC-28" value="KHR" style="rounded=0;whiteSpace=wrap;html=1;" vertex="1" parent="1">
          <mxGeometry x="1370" y="1220" width="80" height="40" as="geometry" />
        </mxCell>
        <mxCell id="zpY-GAfpiMJKnw2xZxAC-29" value="Graphics Pipeline" style="rounded=0;whiteSpace=wrap;html=1;" vertex="1" parent="1">
          <mxGeometry x="830" y="1750" width="80" height="40" as="geometry" />
        </mxCell>
        <mxCell id="zpY-GAfpiMJKnw2xZxAC-50" style="edgeStyle=orthogonalEdgeStyle;rounded=0;orthogonalLoop=1;jettySize=auto;html=1;exitX=0.5;exitY=1;exitDx=0;exitDy=0;entryX=0;entryY=0.5;entryDx=0;entryDy=0;" edge="1" parent="1" source="zpY-GAfpiMJKnw2xZxAC-30" target="zpY-GAfpiMJKnw2xZxAC-47">
          <mxGeometry relative="1" as="geometry" />
        </mxCell>
        <mxCell id="zpY-GAfpiMJKnw2xZxAC-30" value="Input assembler" style="rounded=0;whiteSpace=wrap;html=1;" vertex="1" parent="1">
          <mxGeometry x="500" y="1820" width="80" height="40" as="geometry" />
        </mxCell>
        <mxCell id="zpY-GAfpiMJKnw2xZxAC-53" style="edgeStyle=orthogonalEdgeStyle;rounded=0;orthogonalLoop=1;jettySize=auto;html=1;exitX=0.5;exitY=1;exitDx=0;exitDy=0;entryX=0;entryY=0.5;entryDx=0;entryDy=0;" edge="1" parent="1" source="zpY-GAfpiMJKnw2xZxAC-31" target="zpY-GAfpiMJKnw2xZxAC-48">
          <mxGeometry relative="1" as="geometry">
            <Array as="points">
              <mxPoint x="630" y="1890" />
              <mxPoint x="760" y="1890" />
              <mxPoint x="760" y="1920" />
            </Array>
          </mxGeometry>
        </mxCell>
        <mxCell id="zpY-GAfpiMJKnw2xZxAC-31" value="Vertex shader" style="rounded=0;whiteSpace=wrap;html=1;" vertex="1" parent="1">
          <mxGeometry x="590" y="1820" width="80" height="40" as="geometry" />
        </mxCell>
        <mxCell id="zpY-GAfpiMJKnw2xZxAC-54" style="edgeStyle=orthogonalEdgeStyle;rounded=0;orthogonalLoop=1;jettySize=auto;html=1;exitX=0.5;exitY=1;exitDx=0;exitDy=0;entryX=0;entryY=0.5;entryDx=0;entryDy=0;" edge="1" parent="1" source="zpY-GAfpiMJKnw2xZxAC-32" target="zpY-GAfpiMJKnw2xZxAC-48">
          <mxGeometry relative="1" as="geometry">
            <Array as="points">
              <mxPoint x="720" y="1870" />
              <mxPoint x="740" y="1870" />
              <mxPoint x="740" y="1920" />
            </Array>
          </mxGeometry>
        </mxCell>
        <mxCell id="zpY-GAfpiMJKnw2xZxAC-32" value="Tessellation" style="rounded=0;whiteSpace=wrap;html=1;" vertex="1" parent="1">
          <mxGeometry x="680" y="1820" width="80" height="40" as="geometry" />
        </mxCell>
        <mxCell id="zpY-GAfpiMJKnw2xZxAC-55" style="edgeStyle=orthogonalEdgeStyle;rounded=0;orthogonalLoop=1;jettySize=auto;html=1;exitX=0.5;exitY=1;exitDx=0;exitDy=0;" edge="1" parent="1" source="zpY-GAfpiMJKnw2xZxAC-33" target="zpY-GAfpiMJKnw2xZxAC-48">
          <mxGeometry relative="1" as="geometry" />
        </mxCell>
        <mxCell id="zpY-GAfpiMJKnw2xZxAC-33" value="Geometry shader" style="rounded=0;whiteSpace=wrap;html=1;" vertex="1" parent="1">
          <mxGeometry x="770" y="1820" width="80" height="40" as="geometry" />
        </mxCell>
        <mxCell id="zpY-GAfpiMJKnw2xZxAC-51" style="edgeStyle=orthogonalEdgeStyle;rounded=0;orthogonalLoop=1;jettySize=auto;html=1;exitX=0.5;exitY=1;exitDx=0;exitDy=0;entryX=0.5;entryY=1;entryDx=0;entryDy=0;" edge="1" parent="1" source="zpY-GAfpiMJKnw2xZxAC-34" target="zpY-GAfpiMJKnw2xZxAC-47">
          <mxGeometry relative="1" as="geometry" />
        </mxCell>
        <mxCell id="zpY-GAfpiMJKnw2xZxAC-34" value="Rasterization" style="rounded=0;whiteSpace=wrap;html=1;" vertex="1" parent="1">
          <mxGeometry x="860" y="1820" width="80" height="40" as="geometry" />
        </mxCell>
        <mxCell id="zpY-GAfpiMJKnw2xZxAC-56" style="edgeStyle=orthogonalEdgeStyle;rounded=0;orthogonalLoop=1;jettySize=auto;html=1;exitX=0.5;exitY=1;exitDx=0;exitDy=0;entryX=1;entryY=0.5;entryDx=0;entryDy=0;" edge="1" parent="1" source="zpY-GAfpiMJKnw2xZxAC-35" target="zpY-GAfpiMJKnw2xZxAC-48">
          <mxGeometry relative="1" as="geometry" />
        </mxCell>
        <mxCell id="zpY-GAfpiMJKnw2xZxAC-35" value="Fragment shader" style="rounded=0;whiteSpace=wrap;html=1;" vertex="1" parent="1">
          <mxGeometry x="950" y="1820" width="80" height="40" as="geometry" />
        </mxCell>
        <mxCell id="zpY-GAfpiMJKnw2xZxAC-52" style="edgeStyle=orthogonalEdgeStyle;rounded=0;orthogonalLoop=1;jettySize=auto;html=1;exitX=0.5;exitY=1;exitDx=0;exitDy=0;entryX=0.5;entryY=1;entryDx=0;entryDy=0;" edge="1" parent="1" source="zpY-GAfpiMJKnw2xZxAC-36" target="zpY-GAfpiMJKnw2xZxAC-47">
          <mxGeometry relative="1" as="geometry">
            <Array as="points">
              <mxPoint x="1080" y="1980" />
              <mxPoint x="680" y="1980" />
            </Array>
          </mxGeometry>
        </mxCell>
        <mxCell id="zpY-GAfpiMJKnw2xZxAC-36" value="Color blending" style="rounded=0;whiteSpace=wrap;html=1;" vertex="1" parent="1">
          <mxGeometry x="1040" y="1820" width="80" height="40" as="geometry" />
        </mxCell>
        <mxCell id="zpY-GAfpiMJKnw2xZxAC-57" style="edgeStyle=orthogonalEdgeStyle;rounded=0;orthogonalLoop=1;jettySize=auto;html=1;exitX=0.5;exitY=1;exitDx=0;exitDy=0;entryX=1;entryY=0.5;entryDx=0;entryDy=0;" edge="1" parent="1" source="zpY-GAfpiMJKnw2xZxAC-37" target="zpY-GAfpiMJKnw2xZxAC-48">
          <mxGeometry relative="1" as="geometry">
            <Array as="points">
              <mxPoint x="1170" y="1890" />
              <mxPoint x="880" y="1890" />
              <mxPoint x="880" y="1920" />
            </Array>
          </mxGeometry>
        </mxCell>
        <mxCell id="zpY-GAfpiMJKnw2xZxAC-37" value="Framebuffer" style="rounded=0;whiteSpace=wrap;html=1;" vertex="1" parent="1">
          <mxGeometry x="1130" y="1820" width="80" height="40" as="geometry" />
        </mxCell>
        <mxCell id="zpY-GAfpiMJKnw2xZxAC-47" value="fixed function" style="rounded=0;whiteSpace=wrap;html=1;" vertex="1" parent="1">
          <mxGeometry x="640" y="1900" width="80" height="40" as="geometry" />
        </mxCell>
        <mxCell id="zpY-GAfpiMJKnw2xZxAC-48" value="programmable" style="rounded=0;whiteSpace=wrap;html=1;" vertex="1" parent="1">
          <mxGeometry x="780" y="1900" width="80" height="40" as="geometry" />
        </mxCell>
      </root>
    </mxGraphModel>
  </diagram>
</mxfile>
